<?xml version="1.0" encoding="UTF-8" standalone="no"?>
<svg
   id="Layer_1"
   data-name="Layer 1"
   viewBox="0 0 103.0071 22.970337"
   version="1.1"
   sodipodi:docname="Banglalink.svg"
   width="103.0071"
   height="22.970337"
   inkscape:version="1.3 (0e150ed6c4, 2023-07-21)"
   xmlns:inkscape="http://www.inkscape.org/namespaces/inkscape"
   xmlns:sodipodi="http://sodipodi.sourceforge.net/DTD/sodipodi-0.dtd"
   xmlns="http://www.w3.org/2000/svg"
   xmlns:svg="http://www.w3.org/2000/svg">
  <sodipodi:namedview
     id="namedview12"
     pagecolor="#ffffff"
     bordercolor="#999999"
     borderopacity="1"
     inkscape:showpageshadow="2"
     inkscape:pageopacity="0"
     inkscape:pagecheckerboard="0"
     inkscape:deskcolor="#d1d1d1"
     inkscape:zoom="14.72"
     inkscape:cx="47.860054"
     inkscape:cy="11.514946"
     inkscape:window-width="1920"
     inkscape:window-height="1009"
     inkscape:window-x="-8"
     inkscape:window-y="-8"
     inkscape:window-maximized="1"
     inkscape:current-layer="Layer_1" />
  <defs
     id="defs1">
    <style
       id="style1">.cls-1{fill:#f26e21;}.cls-2{fill:#f9a11b;}</style>
  </defs>
  <path
     d="M 25.307098,14.100337 V 5.8903367 h 2.07 v 3.33 h 2.27 c 6.3,0 5.61,9.3000003 0.05,9.3000003 a 4.24,4.24 0 0 1 -4.39,-4.42 z m 2.08,0.13 a 2.33,2.33 0 0 0 2.29,2.25 c 3,0 3.24,-5.26 0.23,-5.26 h -2.52 z"
     id="path1" />
  <path
     d="m 95.187098,5.8903367 h 2.07 v 6.6700003 l 2.73,-3.3400003 h 2.420002 l -3.000002,3.8300003 3.600002,5.34 h -2.62 l -2.400002,-3.59 -0.76,1 v 2.64 h -2.04 z"
     id="path2" />
  <path
     d="m 44.287098,18.410337 h -2.07 l 0.05,-1.43 a 3.85,3.85 0 0 1 -2.87,1.5 c -3,0 -3.93,-2.33 -3.91,-4.71 a 4.53,4.53 0 0 1 4.59,-4.7200003 4,4 0 0 1 4.21,4.3100003 z m -4.12,-1.93 c 1.41,0 2.12,-1.34 2.14,-2.68 a 2.35,2.35 0 0 0 -2.32,-2.65 2.46,2.46 0 0 0 -2.48,2.64 2.56,2.56 0 0 0 2.66,2.69 z"
     id="path3" />
  <path
     d="m 53.597098,13.480337 v 4.95 h -2.07 v -5.3 a 1.91,1.91 0 1 0 -3.82,0 v 5.26 h -2.07 v -4.91 c 0,-2.72 1.45,-4.3500003 4,-4.3500003 2.55,0 3.96,1.5900003 3.96,4.3500003 z"
     id="path4" />
  <path
     d="m 54.987098,13.790337 c 0,-2.39 1.39,-4.7500003 4.56,-4.7500003 3.17,0 4.57,2.3600003 4.57,4.7500003 v 4.38 c 0,2.81 -1.54,4.8 -4.57,4.8 h -2.92 v -2 h 3.13 a 2.3,2.3 0 0 0 2.23,-2.49 v -0.54 a 4.61,4.61 0 0 1 -2.5,0.65 c -3.14,-0.05 -4.5,-2.42 -4.5,-4.8 z m 4.53,2.69 c 3.38,0 3.38,-5.47 0,-5.47 -3.38,0 -3.37,5.47 0,5.47 z"
     id="path5" />
  <path
     d="m 65.437098,5.8903367 h 2.07 V 18.410337 h -2.07 z"
     id="path6" />
  <path
     d="m 78.987098,5.8903367 h 2.1 V 18.410337 h -2.1 z"
     id="path7" />
  <path
     d="m 93.837098,13.480337 v 4.95 h -2.07 v -5.3 a 1.91,1.91 0 1 0 -3.82,0 v 5.26 h -2.07 v -4.91 c 0,-2.72 1.45,-4.3500003 4,-4.3500003 2.55,0 3.96,1.5900003 3.96,4.3500003 z"
     id="path8" />
  <path
     d="m 77.667098,18.410337 h -2.07 v -1.43 a 3.82,3.82 0 0 1 -2.82,1.5 c -3,0 -3.93,-2.33 -3.91,-4.71 a 4.53,4.53 0 0 1 4.6,-4.7200003 4,4 0 0 1 4.2,4.3100003 z m -4.12,-1.93 c 1.42,0 2.12,-1.34 2.14,-2.68 a 2.35,2.35 0 0 0 -2.27,-2.67 2.46,2.46 0 0 0 -2.43,2.66 2.56,2.56 0 0 0 2.56,2.69 z"
     id="path9" />
  <path
     d="m 82.457098,10.630337 v 7.76 h 2.06 v -7.76 a 1.36,1.36 0 0 1 -2.06,0 z"
     id="path10" />
  <ellipse
     cx="83.487099"
     cy="9.0903378"
     rx="1.21"
     ry="1.2"
     id="ellipse10" />
  <path
     class="cls-1"
     d="m 19.987098,9.1503367 a 6.49,6.49 0 0 0 -5,-3.67 v 0 h -0.26 a 5.12,5.12 0 0 0 -0.64,-2.73 5.34,5.34 0 0 0 -4.7300003,-2.75000002428 5.67,5.67 0 0 0 -1.37,0.16000000428 5.09,5.09 0 0 0 -1.32,0.54 l -3.76,2.11000002 a 5.7,5.7 0 0 0 -2.16,7.7900003 l 3.83,6.78 v 0 l 3.15,5.56 9.4800003,-5.37 a 6.57,6.57 0 0 0 2.78,-8.4200003 z m -4.29,4.7100003 -5.8100003,4.11 v 0 l -2.17,-3.07 -0.24,-0.35 -3.51,-5.0000003 a 2.24,2.24 0 0 1 0.54,-3.1 l 3.33,-2.35 a 2,2 0 0 1 1,-0.35 1.36,1.36 0 0 1 0.35,0 1.81,1.81 0 0 1 1.3900003,0.78 1.73,1.73 0 0 1 0.32,0.9 v 2.06 1.09 l 3.17,-0.1 a 1.6,1.6 0 0 1 0.31,0 2.93,2.93 0 0 1 2.29,1.42 3,3 0 0 1 -0.94,3.9600003 z"
     id="path11" />
  <path
     class="cls-2"
     d="m 17.227098,17.600337 -9.4800003,5.37 2.14,-5 5.8400003,-4.11 a 3,3 0 0 0 0.94,-4.0000003 2.93,2.93 0 0 0 -2.29,-1.38 1.6,1.6 0 0 0 -0.31,0 l -3.15,0.11 3.8,-3.1 0.27,-0.01 v 0 a 6.49,6.49 0 0 1 5,3.65 6.57,6.57 0 0 1 -2.76,8.4700003 z"
     id="path12" />
</svg>
