<?xml version="1.0" encoding="UTF-8" standalone="no"?>
<!-- Created with Inkscape (http://www.inkscape.org/) -->

<svg
   width="100.05"
   height="81.050003"
   viewBox="0 0 26.471564 21.44448"
   version="1.1"
   id="svg5"
   xmlns="http://www.w3.org/2000/svg"
   xmlns:svg="http://www.w3.org/2000/svg">
  <defs
     id="defs2"><clipPath
   id="clip0">
  <rect
     x="274"
     y="88"
     width="481"
     height="481"
     id="rect13360" />
</clipPath>

	
	
</defs>
  <g
     id="layer1">
    <g
       id="g62238">
      <g
         id="g35226"
         transform="matrix(0.2629087,0,0,0.2629087,-0.25629399,-0.88194024)"
         style="fill:#e20612;fill-opacity:1;stroke:none;stroke-opacity:1">
		<path
   class="st0"
   d="m 37.6,52 c -2.6,-1.1 -3.2,-2.4 -3.4,-3.2 0,0 0,-0.1 0,-0.1 0,0 0,-0.1 0,-0.1 v 0 c 0,0 0,-0.1 0,-0.1 0,0 0,0 0,-0.1 v 0 c 0,-0.1 0,-0.1 0,-0.2 0,-0.1 0,-0.1 0,-0.2 h -0.1 0.1 c 0.1,-0.5 0.3,-1 0.6,-1.5 l 0.1,-0.1 c 1.4,-2 4.7,-3.9 8.7,-5.1 2.8,-0.8 5.6,-1.1 7.8,-0.9 2.2,0.2 3.5,0.9 3.8,2 0.3,1.1 -0.7,2.6 -2.8,4 l -0.1,0.1 1.8,1.3 c 0,0 1.8,1.4 3.8,-0.6 1.9,-2.1 2.6,-4.3 2.1,-6.1 -0.6,-2.2 -2.8,-3.8 -6.1,-4.5 -3.3,-0.7 -7.4,-0.5 -11.5,0.7 -4.1,1.1 -7.7,3.1 -10.2,5.4 -2.5,2.4 -3.5,4.9 -2.9,7 0.2,0.9 0.8,1.7 1.6,2.4 h -27 c -0.4,0 -0.9,0.2 -1.3,0.6 -1,1 -1.6,2.9 -1.6,3.1 v 0.1 H 20.6 V 57 C 20,57.1 10,59.6 4.3,65.4 c -0.8,0.8 -0.9,2 -0.3,3 2.1,3 7.6,8.7 21.2,12.7 h 0.1 V 57 56.9 55.8 H 33 v 21.7 c 0,0.5 0.3,1.1 0.8,1.6 1.3,1.4 3.7,2 3.8,2 h 0.1 V 55.8 H 59.3 V 57 c -0.6,0.1 -10.6,2.6 -16.3,8.4 -0.8,0.8 -0.9,2 -0.3,3 2.1,3 7.6,8.7 21.2,12.7 H 64 V 57 v -0.1 -1.1 0 c 0.4,0 0.9,-0.2 1.3,-0.6 0.9,-0.9 1.5,-2.6 1.6,-3.1 V 52 Z m -17,22.5 C 19.7,74.2 14.4,72.2 10.2,68.1 10,68 10,67.8 10,67.6 c 0,-0.2 0.1,-0.4 0.2,-0.5 1.4,-1.3 5.3,-4.4 10.4,-5.1 z m 38.8,0 C 58.5,74.2 53.2,72.2 49,68.1 48.9,68 48.8,67.8 48.8,67.6 c 0,-0.2 0.1,-0.4 0.2,-0.5 1.4,-1.3 5.3,-4.4 10.4,-5.1 z"
   id="path35222"
   style="fill:#e20612;fill-opacity:1;stroke:none;stroke-opacity:1" />

		<ellipse
   class="st0"
   cx="11.2"
   cy="81.699997"
   rx="3.0999999"
   ry="3.2"
   id="ellipse35224"
   style="fill:#e20612;fill-opacity:1;stroke:none;stroke-opacity:1" />

	</g>
      <g
         id="g47275"
         transform="matrix(0.11652225,0,0,0.11652225,9.4451713,-10.524651)">
        <path
           id="path27432"
           style="fill:#ffffff;fill-opacity:1;stroke:#ffffff;stroke-width:4;stroke-linecap:butt;stroke-linejoin:miter;stroke-miterlimit:4;stroke-dasharray:none;stroke-opacity:1"
           d="m 67.919908,93.84314 v 44.18955 L 105.992,160.12746 67.919908,182.22224 105.992,204.31753 144.06461,182.22224 V 138.03269 L 105.992,115.93791 Z" />
        <g
           id="g47244"
           transform="translate(7.80269,-238.79952)">
          <path
             style="fill:#ed3d7f;fill-opacity:1;stroke:none;stroke-width:0.264583px;stroke-linecap:butt;stroke-linejoin:miter;stroke-opacity:1"
             d="m 97.19731,398.34689 -38.07254,22.09483 38.07254,22.09487 z"
             id="path15387" />
          <path
             style="fill:#c30d42;fill-opacity:1;stroke:none;stroke-width:0.264583px;stroke-linecap:butt;stroke-linejoin:miter;stroke-opacity:1"
             d="m 97.19731,398.34693 38.07254,22.09483 -38.07254,22.09487 z"
             id="path18417" />
          <path
             style="fill:#7b1b67;fill-opacity:1;stroke:none;stroke-width:0.264583px;stroke-linecap:butt;stroke-linejoin:miter;stroke-opacity:1"
             d="m 135.26985,376.25206 -38.07254,22.09483 38.07254,22.09487 z"
             id="path20020" />
          <path
             style="fill:#f05a22;fill-opacity:1;stroke:none;stroke-width:0.264583px;stroke-linecap:butt;stroke-linejoin:miter;stroke-opacity:1"
             d="m 97.19731,354.15723 38.07254,22.09483 -38.07254,22.09487 z"
             id="path22247" />
          <path
             style="fill:#f6921e;fill-opacity:1;stroke:none;stroke-width:0.264583px;stroke-linecap:butt;stroke-linejoin:miter;stroke-opacity:1"
             d="m 97.19731,354.15723 -38.07254,22.09483 38.07254,22.09487 z"
             id="path22249" />
          <path
             style="fill:#fcb833;fill-opacity:1;stroke:none;stroke-width:0.264583px;stroke-linecap:butt;stroke-linejoin:miter;stroke-opacity:1"
             d="M 59.12477,332.0624 97.19731,354.15723 59.12477,376.2521 Z"
             id="path24086" />
        </g>
        <g
           id="g47258"
           transform="translate(7.80269,-238.79952)">
          <path
             style="fill:#ed3d7f;fill-opacity:1;stroke:none;stroke-width:0.264583px;stroke-linecap:butt;stroke-linejoin:miter;stroke-opacity:1"
             d="m 97.19731,398.34689 -38.07254,22.09483 38.07254,22.09487 z"
             id="path47246" />
          <path
             style="fill:#c30d42;fill-opacity:1;stroke:none;stroke-width:0.264583px;stroke-linecap:butt;stroke-linejoin:miter;stroke-opacity:1"
             d="m 97.19731,398.34693 38.07254,22.09483 -38.07254,22.09487 z"
             id="path47248" />
          <path
             style="fill:#7b1b67;fill-opacity:1;stroke:none;stroke-width:0.264583px;stroke-linecap:butt;stroke-linejoin:miter;stroke-opacity:1"
             d="m 135.26985,376.25206 -38.07254,22.09483 38.07254,22.09487 z"
             id="path47250" />
          <path
             style="fill:#f05a22;fill-opacity:1;stroke:none;stroke-width:0.264583px;stroke-linecap:butt;stroke-linejoin:miter;stroke-opacity:1"
             d="m 97.19731,354.15723 38.07254,22.09483 -38.07254,22.09487 z"
             id="path47252" />
          <path
             style="fill:#f6921e;fill-opacity:1;stroke:none;stroke-width:0.264583px;stroke-linecap:butt;stroke-linejoin:miter;stroke-opacity:1"
             d="m 97.19731,354.15723 -38.07254,22.09483 38.07254,22.09487 z"
             id="path47254" />
          <path
             style="fill:#fcb833;fill-opacity:1;stroke:none;stroke-width:0.264583px;stroke-linecap:butt;stroke-linejoin:miter;stroke-opacity:1"
             d="M 59.12477,332.0624 97.19731,354.15723 59.12477,376.2521 Z"
             id="path47256" />
        </g>
      </g>
    </g>
  </g>
  <style
     type="text/css"
     id="style35220">
	.st0{fill:#E30B13;}
	.st1{fill:#FFFFFF;}
	.st2{fill:#ED3D7F;}
	.st3{fill:#FCB833;}
	.st4{fill:#F6921E;}
	.st5{fill:#7B1B67;}
	.st6{fill:#F05A22;}
	.st7{fill:#C30D42;}
</style>
  <style
     type="text/css"
     id="style48140">
	.st0{fill:#E30B13;}
	.st1{fill:#FFFFFF;}
	.st2{fill:#ED3D7F;}
	.st3{fill:#FCB833;}
	.st4{fill:#F6921E;}
	.st5{fill:#7B1B67;}
	.st6{fill:#F05A22;}
	.st7{fill:#C30D42;}
</style>
</svg>
